P3 80 50
255
0 0 0 0 0 0 0 0 0 0 0 0 0 0 0 0 0 0 0 0 0 0 0 0 0 0 0 0 0 0 0 0 0 0 0 0 0 0 0 0 0 0 0 0 0 0 0 0 0 0 0 0 0 0 0 0 0 0 0 0 0 0 0 0 0 0 0 0 0 0 0 0 0 0 0 0 0 0 0 0 0 0 0 0 0 0 0 0 0 0 0 0 0 0 0 0 0 0 0 0 0 0 0 0 0 0 0 0 0 0 0 0 0 0 0 0 0 0 0 0 0 0 0 0 0 0 0 0 0 0 0 0 0 0 0 0 0 0 0 0 0 0 0 0 0 0 0 0 0 0 0 0 0 0 0 0 0 0 0 0 0 0 0 0 0 0 0 0 0 0 0 0 0 0 0 0 0 0 0 0 0 0 0 0 0 0 0 0 0 0 0 0 0 0 0 0 0 0 0 0 0 0 0 0 0 0 0 0 0 0 0 0 0 0 0 0 0 0 0 0 0 0 0 0 0 0 0 0 0 0 0 0 0 0 0 0 0 0 0 0 
0 0 0 0 0 0 0 0 0 0 0 0 0 0 0 0 0 0 0 0 0 0 0 0 0 0 0 0 0 0 0 0 0 0 0 0 0 0 0 0 0 0 0 0 0 0 0 0 0 0 0 0 0 0 0 0 0 0 0 0 0 0 0 0 0 0 0 0 0 0 0 0 0 0 0 0 0 0 0 0 0 0 0 0 0 0 0 0 0 0 0 0 0 0 0 0 0 0 0 0 0 0 0 0 0 0 0 0 0 0 0 0 0 0 0 0 0 0 0 0 0 0 0 0 0 0 0 0 0 0 0 0 0 0 0 0 0 0 0 0 0 0 0 0 0 0 0 0 0 0 0 0 0 0 0 0 0 0 0 0 0 0 0 0 0 0 0 0 0 0 0 0 0 0 0 0 0 0 0 0 0 0 0 0 0 0 0 0 0 0 0 0 0 0 0 0 0 0 0 0 0 0 0 0 0 0 0 0 0 0 0 0 0 0 0 0 0 0 0 0 0 0 0 0 0 0 0 0 0 0 0 0 0 0 0 0 0 0 0 0 
0 0 0 0 0 0 0 0 0 0 0 0 0 0 0 0 0 0 0 0 0 0 0 0 0 0 0 0 0 0 0 0 0 0 0 0 0 0 0 0 0 0 0 0 0 0 0 0 0 0 0 0 0 0 0 0 0 0 0 0 0 0 0 0 0 0 0 0 0 0 0 0 0 0 0 0 0 0 0 0 0 0 0 0 0 0 0 0 0 0 0 0 0 0 0 0 0 0 0 0 0 0 0 0 0 0 0 0 0 0 0 0 0 0 0 0 0 0 0 0 0 0 0 0 0 0 0 0 0 0 0 0 0 0 0 0 0 0 0 0 0 0 0 0 0 0 0 0 0 0 0 0 0 0 0 0 0 0 0 0 0 0 0 0 0 0 0 0 0 0 0 0 0 0 0 0 0 0 0 0 0 0 0 0 0 0 0 0 0 0 0 0 0 0 0 0 0 0 0 0 0 0 0 0 0 0 0 0 0 0 0 0 0 0 0 0 0 0 0 0 0 0 0 0 0 0 0 0 0 0 0 0 0 0 0 0 0 0 0 0 
0 0 0 0 0 0 0 0 0 0 0 0 0 0 0 0 0 0 0 0 0 0 0 0 0 0 0 0 0 0 0 0 0 0 0 0 0 0 0 0 0 0 0 0 0 0 0 0 0 0 0 0 0 0 0 0 0 0 0 0 0 0 0 0 0 0 0 0 0 0 0 0 0 0 0 0 0 0 0 0 0 0 0 0 0 0 0 0 0 0 0 0 0 0 0 0 0 0 0 0 0 0 0 0 0 0 0 0 0 0 0 0 0 0 0 0 0 0 0 0 0 0 0 0 0 0 0 0 0 0 0 0 0 0 0 0 0 0 0 0 0 0 0 0 0 0 0 0 0 0 0 0 0 0 0 0 0 0 0 0 0 0 0 0 0 0 0 0 0 0 0 0 0 0 0 0 0 0 0 0 0 0 0 0 0 0 0 0 0 0 0 0 0 0 0 0 0 0 0 0 0 0 0 0 0 0 0 0 0 0 0 0 0 0 0 0 0 0 0 0 0 0 0 0 0 0 0 0 0 0 0 0 0 0 0 0 0 0 0 0 
0 0 0 0 0 0 0 0 0 0 0 0 0 0 0 0 0 0 0 0 0 0 0 0 0 0 0 0 0 0 0 0 0 0 0 0 0 0 0 0 0 0 0 0 0 0 0 0 0 0 0 0 0 0 0 0 0 0 0 0 0 0 0 0 0 0 0 0 0 0 0 0 0 0 0 0 0 0 0 0 0 0 0 0 0 0 0 0 0 0 0 0 0 0 0 0 0 0 0 0 0 0 0 0 0 0 0 0 0 0 0 0 0 0 0 0 0 0 0 0 0 0 0 0 0 0 0 0 0 0 0 0 0 0 0 0 0 0 0 0 0 0 0 0 0 0 0 0 0 0 0 0 0 0 0 0 0 0 0 13 13 255 13 13 255 13 13 255 13 13 255 13 13 255 0 0 0 0 0 0 0 0 0 0 0 0 0 0 0 0 0 0 0 0 0 0 0 0 0 0 0 0 0 0 0 0 0 0 0 0 0 0 0 0 0 0 0 0 0 0 0 0 0 0 0 0 0 0 0 0 0 0 0 0 0 0 0 0 0 0 
0 0 0 0 0 0 0 0 0 0 0 0 0 0 0 0 0 0 0 0 0 0 0 0 0 0 0 0 0 0 0 0 0 0 0 0 0 0 0 0 0 0 0 0 0 0 0 0 0 0 0 0 0 0 0 0 0 0 0 0 0 0 0 0 0 0 0 0 0 0 0 0 0 0 0 0 0 0 0 0 0 0 0 0 0 0 0 0 0 0 0 0 0 0 0 0 0 0 0 0 0 0 0 0 0 0 0 0 0 0 0 0 0 0 0 0 0 0 0 0 0 0 0 0 0 0 0 0 0 0 0 0 0 0 0 0 0 0 0 0 0 0 0 0 0 0 0 0 0 0 13 13 255 13 13 255 13 13 255 13 13 255 13 13 255 13 13 255 13 13 255 13 13 255 13 13 255 13 13 255 13 13 255 13 13 255 0 0 0 0 0 0 0 0 0 0 0 0 0 0 0 0 0 0 0 0 0 0 0 0 0 0 0 0 0 0 0 0 0 0 0 0 0 0 0 0 0 0 0 0 0 0 0 0 0 0 0 0 0 0 
0 0 0 0 0 0 0 0 0 0 0 0 0 0 0 0 0 0 0 0 0 0 0 0 0 0 0 0 0 0 0 0 0 0 0 0 0 0 0 0 0 0 0 0 0 0 0 0 0 0 0 0 0 0 0 0 0 0 0 0 0 0 0 0 0 0 0 0 0 0 0 0 0 0 0 0 0 0 0 0 0 0 0 0 0 0 0 0 0 0 0 0 0 0 0 0 0 0 0 0 0 0 0 0 0 0 0 0 0 0 0 0 0 0 0 0 0 0 0 0 0 0 0 0 0 0 0 0 0 0 0 0 0 0 0 0 0 0 0 0 0 0 0 0 13 13 255 13 13 255 13 13 255 13 13 255 13 13 255 14 14 255 15 15 255 14 14 255 14 14 255 13 13 255 13 13 255 13 13 255 13 13 255 13 13 255 13 13 255 0 0 0 0 0 0 0 0 0 0 0 0 0 0 0 0 0 0 0 0 0 0 0 0 0 0 0 0 0 0 0 0 0 0 0 0 0 0 0 0 0 0 0 0 0 0 0 0 0 0 0 
0 0 0 0 0 0 0 0 0 0 0 0 0 0 0 0 0 0 0 0 0 0 0 0 0 0 0 0 0 0 0 0 0 0 0 0 0 0 0 0 0 0 0 0 0 0 0 0 0 0 0 0 0 0 0 0 0 0 0 0 0 0 0 0 0 0 0 0 0 0 0 0 0 0 0 0 0 0 0 0 0 0 0 0 183 89 183 197 95 197 201 97 201 198 95 198 188 91 188 0 0 0 0 0 0 0 0 0 0 0 0 0 0 0 0 0 0 0 0 0 0 0 0 0 0 0 0 0 0 0 0 0 0 0 0 0 0 0 0 0 0 13 13 255 13 13 255 13 13 255 13 13 255 15 15 255 23 23 255 34 34 255 40 40 255 35 35 255 25 25 255 17 17 255 14 14 255 13 13 255 13 13 255 13 13 255 13 13 255 13 13 255 13 13 255 0 0 0 0 0 0 0 0 0 0 0 0 0 0 0 0 0 0 0 0 0 0 0 0 0 0 0 0 0 0 0 0 0 0 0 0 0 0 0 0 0 0 0 0 0 
0 0 0 0 0 0 0 0 0 0 0 0 0 0 0 0 0 0 0 0 0 0 0 0 0 0 0 0 0 0 0 0 0 0 0 0 0 0 0 0 0 0 0 0 0 0 0 0 0 0 0 0 0 0 0 0 0 0 0 0 0 0 0 0 0 0 0 0 0 0 0 0 0 0 0 0 0 0 171 83 171 195 94 195 206 99 206 212 102 212 214 103 214 213 102 213 207 99 207 197 95 197 177 86 177 0 0 0 0 0 0 0 0 0 0 0 0 0 0 0 0 0 0 0 0 0 0 0 0 0 0 0 0 0 0 0 0 0 13 13 245 13 13 255 13 13 255 13 13 255 16 16 255 32 32 255 68 68 255 112 112 255 129 129 255 106 106 255 65 65 255 33 33 255 18 18 255 14 14 255 13 13 255 13 13 255 13 13 255 13 13 255 13 13 255 13 13 255 0 0 0 0 0 0 0 0 0 0 0 0 0 0 0 0 0 0 0 0 0 0 0 0 0 0 0 0 0 0 0 0 0 0 0 0 0 0 0 0 0 0 
0 0 0 0 0 0 0 0 0 0 0 0 0 0 0 0 0 0 0 0 0 0 0 0 0 0 0 0 0 0 0 0 0 0 0 0 0 0 0 0 0 0 0 0 0 0 0 0 0 0 0 0 0 0 0 0 0 0 0 0 0 0 0 0 0 0 0 0 0 0 0 0 0 0 0 164 80 164 188 91 188 202 97 202 210 101 210 215 104 215 219 107 219 217 105 217 210 101 210 202 97 202 189 91 189 167 81 167 0 0 0 0 0 0 0 0 0 0 0 0 0 0 0 0 0 0 0 0 0 0 0 0 0 0 0 13 13 208 13 13 255 13 13 255 13 13 255 14 14 255 25 25 255 63 63 255 137 137 255 214 214 255 239 239 255 194 194 255 117 117 255 56 56 255 25 25 255 15 15 255 13 13 255 13 13 255 13 13 255 13 13 255 13 13 255 13 13 255 13 13 255 0 0 0 0 0 0 0 0 0 0 0 0 0 0 0 0 0 0 0 0 0 0 0 0 0 0 0 0 0 0 0 0 0 0 0 0 0 0 0 
0 0 0 0 0 0 0 0 0 0 0 0 0 0 0 0 0 0 0 0 0 0 0 0 0 0 0 0 0 0 0 0 0 0 0 0 0 0 0 0 0 0 0 0 0 0 0 0 0 0 0 0 0 0 0 0 0 0 0 0 0 0 0 0 0 0 0 0 0 0 0 0 141 70 141 173 84 173 189 91 189 200 96 200 210 103 210 237 127 237 255 165 255 255 153 255 220 113 220 200 97 200 188 91 188 172 83 172 143 71 143 0 0 0 0 0 0 0 0 0 0 0 0 0 0 0 0 0 0 0 0 0 13 13 152 13 13 219 13 13 254 13 13 255 13 13 255 16 16 255 31 31 255 77 77 255 158 158 255 238 238 255 255 255 255 211 211 255 131 131 255 65 65 255 30 30 255 17 17 255 13 13 255 13 13 255 13 13 255 13 13 255 13 13 255 13 13 255 13 13 255 13 13 255 0 0 0 0 0 0 0 0 0 0 0 0 0 0 0 0 0 0 0 0 0 0 0 0 0 0 0 0 0 0 0 0 0 0 0 0 
0 0 0 0 0 0 0 0 0 0 0 0 0 0 0 0 0 0 0 0 0 0 0 0 0 0 0 0 0 0 0 0 0 0 0 0 0 0 0 0 0 0 0 0 0 0 0 0 0 0 0 0 0 0 0 0 0 0 0 0 0 0 0 0 0 0 0 0 0 0 0 0 148 73 148 170 83 170 184 89 184 194 94 194 216 113 216 255 198 255 255 255 255 255 255 255 255 154 255 198 98 198 182 88 182 168 82 168 145 72 145 97 50 97 0 0 0 0 0 0 0 0 0 0 0 0 0 0 0 0 0 0 13 13 170 13 13 217 13 13 248 13 13 255 13 13 255 15 15 255 27 27 255 61 61 255 117 117 255 170 170 255 186 186 255 155 155 255 103 103 255 58 58 255 31 31 255 19 19 255 14 14 255 13 13 255 13 13 255 13 13 255 13 13 255 13 13 255 13 13 255 13 13 255 0 0 0 0 0 0 0 0 0 0 0 0 0 0 0 0 0 0 0 0 0 0 0 0 0 0 0 0 0 0 0 0 0 0 0 0 
70 52 51 71 52 51 71 53 51 121 107 89 122 108 90 123 109 90 72 53 51 72 53 51 73 53 51 127 112 93 129 113 93 130 114 94 74 53 51 74 53 51 74 53 51 75 53 51 75 53 51 75 53 51 76 53 51 76 53 51 76 53 51 76 53 51 77 53 51 106 54 106 144 71 144 163 80 163 176 85 176 186 91 186 216 117 216 255 229 255 255 255 255 255 255 255 255 170 255 191 97 191 173 84 173 159 78 159 139 69 139 104 53 104 148 129 104 148 129 104 79 53 51 79 53 51 148 128 104 148 128 104 54 32 211 13 13 210 13 13 238 13 13 255 13 13 255 14 14 255 20 20 255 36 36 255 63 63 255 91 91 255 105 105 255 100 100 255 84 84 255 63 63 255 44 44 255 28 28 255 19 19 255 14 14 255 13 13 255 13 13 255 13 13 255 13 13 255 13 13 255 13 13 255 13 13 254 73 53 51 73 53 51 126 111 92 125 110 91 124 109 91 72 53 51 71 53 51 71 53 51 120 106 88 119 105 88 118 104 87 
86 54 51 87 54 51 87 54 51 87 54 51 88 54 51 88 54 51 89 54 51 89 54 51 89 54 51 186 159 124 187 160 125 189 161 126 190 162 126 191 163 127 192 164 128 194 165 129 195 166 129 196 167 130 197 168 130 198 169 131 199 170 132 201 171 132 202 171 133 103 53 103 135 67 135 153 75 153 165 80 165 175 86 175 207 115 207 255 228 255 255 255 255 255 255 255 255 166 255 182 95 211 164 82 185 148 73 148 128 64 128 96 50 96 211 179 138 211 179 138 97 54 51 97 54 51 97 54 51 37 25 122 55 33 204 13 13 199 13 13 227 13 13 248 13 13 255 13 13 255 15 15 255 21 21 255 33 33 255 51 51 255 74 74 255 96 96 255 110 110 255 106 106 255 84 84 255 54 54 255 31 31 255 19 19 255 14 14 255 13 13 255 13 13 255 13 13 255 13 13 255 13 13 255 13 13 255 89 54 51 89 54 51 182 156 122 181 155 122 180 154 121 179 153 120 177 152 120 176 151 119 175 150 118 173 149 117 172 148 117 
98 55 51 98 55 51 217 184 141 99 55 51 99 55 51 221 187 144 100 55 51 101 55 51 225 190 146 101 55 51 102 55 51 229 194 148 103 55 51 103 55 51 233 197 150 104 55 51 104 55 51 236 199 152 104 55 51 238 201 153 239 202 153 105 55 51 241 203 154 111 58 101 138 72 131 139 69 139 151 74 151 161 80 161 192 108 192 255 212 255 255 255 255 255 255 255 234 151 234 167 88 170 149 75 149 151 77 143 160 97 144 132 86 113 108 55 51 249 210 159 108 55 51 249 209 159 249 209 158 42 27 123 48 30 186 13 13 186 13 13 213 13 13 234 13 13 252 13 13 255 14 14 255 16 16 255 25 25 255 46 46 255 85 85 255 136 136 255 176 176 255 182 182 255 149 149 255 97 97 255 52 52 255 26 26 255 16 16 255 13 13 255 13 13 255 13 13 255 13 13 255 13 13 255 13 13 255 225 190 145 223 189 145 100 55 51 221 187 143 219 186 143 99 55 51 217 184 141 215 182 140 98 55 51 213 180 139 211 179 138 
106 55 51 244 206 156 107 55 51 247 208 157 108 55 51 249 210 159 108 55 51 252 212 160 109 55 51 254 213 161 110 55 51 255 215 163 110 55 51 255 217 164 111 56 51 255 218 165 111 56 51 255 220 166 112 56 51 255 221 167 112 56 51 255 223 168 113 56 51 99 52 85 165 104 142 184 113 161 198 120 173 208 125 183 226 141 201 240 149 224 255 228 255 255 188 255 243 158 218 158 86 153 137 69 134 177 110 153 158 101 135 95 50 81 115 56 51 255 228 171 114 56 51 255 228 171 114 56 51 41 27 108 13 13 135 13 13 170 13 13 197 13 13 218 13 13 236 13 13 251 13 13 255 16 16 255 25 25 255 53 53 255 106 106 255 177 177 255 237 237 255 250 250 255 208 208 255 137 137 255 73 73 255 34 34 255 18 18 255 14 14 255 13 13 255 13 13 255 13 13 255 13 13 255 13 13 251 251 211 160 108 55 51 249 209 159 107 55 51 247 207 157 107 55 51 244 206 156 106 55 51 242 204 155 105 55 51 239 202 153 
112 56 51 255 222 167 112 56 51 255 223 168 113 56 51 255 225 169 255 226 170 114 56 51 255 227 171 255 228 171 115 56 51 115 56 51 255 230 173 116 56 51 255 232 174 116 56 51 116 56 51 255 233 175 117 56 51 255 235 176 117 56 51 255 236 176 255 236 177 125 86 102 119 60 104 173 108 149 184 113 159 153 75 137 198 122 174 172 90 156 184 102 168 178 96 162 162 82 147 193 120 168 185 115 160 133 66 117 115 59 101 84 45 69 119 56 51 255 240 179 119 56 51 255 239 179 119 56 51 42 27 86 70 60 152 35 24 162 61 53 210 49 44 226 29 28 233 13 13 235 13 13 248 15 15 255 25 25 255 52 52 255 106 106 255 181 181 255 245 245 255 255 255 255 222 222 255 148 148 255 79 79 255 37 37 255 19 19 255 14 14 255 13 13 255 13 13 255 13 13 255 40 37 255 32 24 249 35 24 201 113 56 51 113 56 51 255 223 168 113 56 51 112 56 51 255 221 166 112 56 51 255 219 165 111 56 51 255 217 164 
116 56 51 116 56 51 255 233 175 117 56 51 117 56 51 255 235 176 117 56 51 118 56 51 255 237 178 118 56 51 118 56 51 255 239 179 119 56 51 255 240 180 255 241 180 119 56 51 255 242 181 255 242 181 120 56 51 255 243 182 255 244 182 120 56 51 255 244 182 255 245 183 109 56 94 165 105 141 177 110 152 184 114 160 151 75 136 193 118 168 194 119 170 193 118 168 151 75 136 146 73 131 136 68 121 124 62 109 141 94 117 255 247 184 255 247 184 121 56 51 255 247 184 121 56 51 121 56 51 44 33 61 38 24 104 75 65 170 38 24 170 38 24 192 76 65 240 38 24 227 76 65 255 40 26 254 85 74 255 106 95 255 149 138 255 169 153 255 255 255 255 242 222 255 255 251 255 196 183 255 132 121 255 57 44 255 75 66 255 37 25 255 68 59 255 68 59 255 68 59 255 36 24 255 69 60 255 36 24 202 255 235 176 117 56 51 255 234 175 255 233 175 116 56 51 255 232 174 255 231 173 115 56 51 255 229 172 255 229 172 
119 56 51 255 241 180 119 56 51 119 56 51 255 242 181 255 243 181 120 56 51 120 56 51 255 244 182 121 56 51 121 56 51 255 246 183 255 246 184 121 56 51 255 247 184 255 248 185 122 56 51 122 56 51 255 249 185 122 56 51 122 56 51 255 250 186 255 250 186 123 56 51 89 47 74 152 99 128 166 105 142 175 109 151 142 71 127 183 113 159 184 114 160 145 72 130 141 70 126 135 67 120 125 63 110 147 97 123 118 83 94 123 56 51 255 252 188 255 252 188 123 56 51 123 56 51 255 252 188 38 24 32 76 65 116 76 66 150 38 24 148 38 24 171 39 24 191 39 24 207 78 67 251 79 68 255 83 72 255 95 83 255 118 107 255 115 100 255 187 176 255 156 141 255 139 124 255 105 90 255 72 57 255 51 36 255 81 70 255 77 66 255 38 24 255 38 24 255 38 24 255 74 64 255 37 24 236 71 62 221 255 242 181 119 56 51 255 241 180 255 241 180 119 56 51 119 56 51 255 239 179 255 238 178 118 56 51 255 237 177 
121 56 51 255 246 184 255 247 184 121 56 51 122 56 51 255 248 185 255 249 185 122 56 51 122 56 51 255 250 186 255 250 186 123 56 51 123 56 51 255 251 187 255 252 187 123 56 51 123 56 51 255 253 188 255 253 188 124 56 51 124 57 51 255 254 189 124 57 51 124 57 51 255 255 189 129 89 105 150 98 126 123 62 108 168 106 144 133 67 118 134 67 119 170 107 146 166 105 142 158 102 134 108 55 93 122 85 98 255 255 190 255 255 190 124 57 51 124 57 51 255 255 190 255 255 190 124 57 51 38 24 23 80 67 110 38 24 114 77 66 170 39 24 161 77 67 208 39 24 194 78 67 237 79 68 249 86 75 255 72 57 255 104 89 255 141 130 255 92 77 255 130 119 255 83 68 255 107 96 255 93 82 255 44 29 255 40 25 255 77 67 255 77 66 255 76 66 255 38 24 255 75 65 255 38 24 231 122 56 51 121 56 51 255 247 184 255 247 184 121 56 51 121 56 51 255 245 183 255 245 182 120 56 51 120 56 51 255 243 181 
122 56 51 255 251 187 255 251 187 123 56 51 123 56 51 255 252 188 255 253 188 123 56 51 124 56 51 255 254 189 255 254 189 255 254 189 124 57 51 124 57 51 255 255 190 255 255 190 124 57 51 125 57 51 255 255 190 255 255 191 125 57 51 125 57 51 125 57 51 255 255 191 255 255 191 125 57 51 81 43 65 140 94 116 114 58 98 159 103 134 160 104 135 158 103 132 113 59 97 137 93 112 72 39 57 125 57 51 255 255 192 255 255 192 125 57 51 125 57 51 255 255 192 255 255 192 125 57 51 125 57 51 80 68 94 38 24 104 77 66 162 39 24 154 77 67 202 78 67 218 39 24 202 39 24 213 40 25 224 42 27 236 46 32 247 51 36 255 93 82 255 55 40 255 92 81 255 48 33 255 82 71 255 79 68 255 39 25 255 39 24 255 38 24 255 38 24 255 38 24 253 76 65 255 38 24 222 123 56 51 123 56 51 255 251 187 255 251 187 122 56 51 122 56 51 255 249 186 255 249 185 122 56 51 122 56 51 255 248 185 
124 57 51 255 254 189 255 254 189 255 255 189 124 57 51 124 57 51 255 255 190 255 255 190 255 255 190 125 57 51 125 57 51 255 255 191 255 255 191 125 57 51 125 57 51 125 57 51 255 255 192 255 255 192 125 57 51 126 57 51 126 57 51 255 255 192 255 255 193 126 57 51 126 57 51 255 255 193 255 255 193 255 255 193 106 80 81 122 87 97 86 46 70 81 43 65 96 75 71 126 57 51 126 57 51 255 255 193 255 255 193 255 255 193 126 57 51 126 57 51 255 255 193 255 255 193 126 57 51 126 57 51 38 24 33 44 27 94 38 24 121 77 66 175 77 66 194 77 67 211 39 24 195 39 24 207 39 24 218 78 67 255 40 25 236 80 69 255 81 70 255 81 70 255 42 27 255 41 26 255 79 68 255 78 67 255 77 67 255 39 24 255 38 24 255 38 24 254 76 66 255 76 65 255 75 65 233 255 255 189 255 255 189 124 57 51 124 57 51 124 57 51 255 253 188 255 253 188 123 56 51 123 56 51 123 56 51 255 251 187 
125 57 51 125 57 51 125 57 51 255 255 191 255 255 191 125 57 51 125 57 51 125 57 51 255 255 192 255 255 192 255 255 192 126 57 51 126 57 51 255 255 193 255 255 193 255 255 193 126 57 51 126 57 51 126 57 51 255 255 193 255 255 194 126 57 51 126 57 51 126 57 51 255 255 194 255 255 194 255 255 194 134 62 56 143 70 63 255 255 208 255 255 203 255 255 203 146 72 65 136 62 57 134 62 56 255 255 194 255 255 194 127 57 51 127 57 51 127 57 51 255 255 194 255 255 194 255 255 194 127 57 51 127 57 51 42 26 70 77 66 135 77 66 163 39 24 154 39 24 172 39 24 187 78 67 229 39 24 210 78 67 250 78 67 255 39 24 235 39 25 242 39 25 247 39 25 251 78 67 255 39 24 255 77 67 255 39 24 255 39 24 255 38 24 251 77 66 255 38 24 236 76 65 247 255 255 191 125 57 51 125 57 51 125 57 51 255 255 190 255 255 190 255 255 190 124 57 51 124 57 51 255 255 189 255 254 189 255 254 189 
125 57 51 125 57 51 255 255 192 255 255 192 255 255 193 126 57 51 126 57 51 126 57 51 255 255 193 255 255 193 255 255 193 126 57 51 126 57 51 126 57 51 255 255 194 255 255 194 255 255 194 127 57 51 127 57 51 127 57 51 255 255 195 255 255 195 255 255 195 127 57 51 127 57 51 127 57 51 255 255 201 255 255 204 150 73 69 143 65 64 152 74 71 255 255 215 255 255 214 255 255 213 148 72 67 137 62 58 127 57 51 255 255 195 255 255 195 255 255 195 127 57 51 127 57 51 127 57 51 255 255 195 255 255 195 76 65 52 83 69 119 38 24 117 77 66 170 77 66 190 39 24 176 77 67 219 39 24 201 39 24 211 78 67 250 78 67 255 78 67 255 78 67 255 78 67 255 39 24 246 39 24 248 77 66 255 39 24 248 77 66 255 38 24 241 77 66 255 76 66 250 38 24 194 255 255 193 126 57 51 126 57 51 125 57 51 255 255 192 255 255 192 255 255 191 125 57 51 125 57 51 125 57 51 255 255 191 255 255 190 
126 57 51 126 57 51 255 255 193 255 255 193 255 255 194 255 255 194 126 57 51 127 57 51 127 57 51 255 255 194 255 255 194 255 255 195 127 57 51 127 57 51 127 57 51 255 255 195 255 255 195 255 255 195 127 57 51 127 57 51 127 57 51 255 255 195 255 255 195 255 255 196 127 57 51 145 71 64 149 73 68 255 255 215 255 255 212 255 255 213 255 255 219 156 76 74 148 67 68 154 75 72 255 255 210 255 255 208 255 255 203 128 57 51 128 57 51 128 57 51 255 255 196 255 255 196 255 255 196 127 57 51 127 57 51 127 57 51 77 66 67 77 66 122 77 66 152 39 24 145 39 24 163 77 66 207 77 66 220 39 24 201 77 67 239 77 67 247 39 24 224 39 24 229 39 24 233 77 66 255 77 66 255 39 24 238 39 24 237 38 24 234 38 24 228 38 24 218 76 66 227 255 255 194 126 57 51 126 57 51 126 57 51 255 255 193 255 255 193 255 255 193 126 57 51 126 57 51 126 57 51 126 57 51 255 255 192 255 255 192 
126 57 51 127 57 51 127 57 51 255 255 194 255 255 194 255 255 195 127 57 51 127 57 51 127 57 51 127 57 51 255 255 195 255 255 195 255 255 195 127 57 51 127 57 51 127 57 51 255 255 196 255 255 196 255 255 196 255 255 196 128 57 51 128 57 51 128 57 51 255 255 196 255 255 201 255 255 215 255 255 212 156 76 74 157 76 75 150 68 70 255 255 216 255 255 222 255 255 216 157 76 75 148 67 68 146 66 66 150 73 69 255 255 199 255 255 196 255 255 196 128 57 51 128 57 51 128 57 51 255 255 196 255 255 196 255 255 196 255 255 196 38 24 42 77 66 124 38 24 124 38 24 145 39 24 162 39 24 176 39 24 187 39 24 197 39 24 205 77 66 241 39 24 217 39 24 221 77 66 254 39 24 225 77 66 255 77 66 252 77 66 248 77 66 239 38 24 192 255 255 195 127 57 51 127 57 51 127 57 51 255 255 194 255 255 194 255 255 194 255 255 194 126 57 51 126 57 51 126 57 51 255 255 193 255 255 193 255 255 193 
127 57 51 127 57 51 127 57 51 127 57 51 255 255 195 255 255 195 255 255 195 255 255 196 127 57 51 127 57 51 127 57 51 255 255 196 255 255 196 255 255 196 255 255 196 128 57 51 128 57 51 128 57 51 255 255 196 255 255 196 255 255 197 255 255 197 128 57 51 128 57 51 143 65 63 147 67 67 255 255 221 255 255 217 255 255 224 153 69 73 153 70 73 161 78 79 153 69 73 255 255 218 255 255 223 255 255 221 146 66 66 136 62 59 128 57 51 128 57 51 255 255 197 255 255 197 255 255 197 255 255 197 128 57 51 128 57 51 128 57 51 255 255 197 255 255 197 79 67 119 79 67 149 80 69 173 80 69 191 39 25 175 39 25 187 78 67 226 78 67 234 78 67 240 78 67 245 39 24 209 38 24 209 38 24 208 77 66 233 38 24 195 38 24 176 127 57 51 127 57 51 127 57 51 127 57 51 255 255 195 255 255 195 255 255 195 127 57 51 127 57 51 127 57 51 127 57 51 255 255 194 255 255 194 255 255 194 255 255 194 
127 57 51 127 57 51 255 255 196 255 255 196 255 255 196 128 57 51 128 57 51 128 57 51 128 57 51 255 255 196 255 255 196 255 255 196 255 255 197 128 57 51 128 57 51 128 57 51 128 57 51 255 255 197 255 255 197 255 255 197 255 255 197 128 57 51 128 57 51 135 61 58 153 74 72 255 255 222 255 255 224 255 255 220 155 70 74 155 70 75 163 79 81 156 70 75 255 255 227 255 255 221 255 255 225 255 255 224 149 68 69 140 63 62 128 57 51 128 57 51 255 255 197 255 255 197 255 255 197 255 255 197 128 57 51 128 57 51 128 57 51 128 57 51 255 255 197 255 255 197 41 27 66 40 25 106 80 69 161 80 69 179 40 25 162 42 27 174 40 25 181 80 69 218 40 25 191 40 25 193 78 67 220 39 25 185 38 24 171 255 255 196 255 255 196 255 255 196 255 255 196 127 57 51 127 57 51 127 57 51 127 57 51 255 255 195 255 255 195 255 255 195 255 255 195 127 57 51 127 57 51 127 57 51 255 255 195 255 255 194 
128 57 51 128 57 51 128 57 51 255 255 196 255 255 196 255 255 196 255 255 197 128 57 51 128 57 51 128 57 51 128 57 51 255 255 197 255 255 197 255 255 197 255 255 197 255 255 197 128 57 51 128 57 51 128 57 51 128 57 51 255 255 197 255 255 197 255 255 197 255 255 209 151 71 72 160 77 78 162 78 80 163 79 81 255 255 229 255 255 223 255 255 224 255 255 230 165 79 82 165 80 82 163 79 81 161 77 79 255 255 215 255 255 211 255 255 198 255 255 198 128 57 51 128 57 51 128 57 51 128 57 51 255 255 198 255 255 198 255 255 198 255 255 198 131 59 54 136 62 56 144 70 61 144 70 62 255 255 208 80 69 128 42 27 122 40 25 136 40 25 146 42 27 154 80 69 185 80 69 183 80 69 171 255 255 197 255 255 197 255 255 197 128 57 51 128 57 51 128 57 51 128 57 51 128 57 51 255 255 196 255 255 196 255 255 196 255 255 196 127 57 51 127 57 51 127 57 51 127 57 51 255 255 195 255 255 195 255 255 195 
128 57 51 255 255 197 255 255 197 255 255 197 255 255 197 128 57 51 128 57 51 128 57 51 128 57 51 128 57 51 255 255 197 255 255 197 255 255 197 255 255 197 128 57 51 128 57 51 128 57 51 128 57 51 255 255 198 255 255 198 255 255 198 255 255 198 255 255 198 142 64 64 146 66 69 157 75 77 156 71 75 255 255 224 255 255 225 255 255 231 255 255 231 159 72 78 167 80 84 156 72 77 153 70 75 150 68 72 255 255 217 255 255 213 255 255 198 255 255 198 129 57 51 129 57 51 129 57 51 129 57 51 255 255 198 255 255 198 255 255 198 255 255 202 255 255 208 144 70 61 144 70 62 137 62 56 136 62 56 255 255 209 255 255 210 255 255 211 255 255 211 136 62 58 136 62 57 136 62 56 131 59 54 128 57 51 255 255 197 255 255 197 255 255 197 255 255 197 128 57 51 128 57 51 128 57 51 128 57 51 255 255 197 255 255 196 255 255 196 255 255 196 255 255 196 128 57 51 128 57 51 127 57 51 127 57 51 255 255 196 
128 57 51 128 57 51 128 57 51 128 57 51 255 255 197 255 255 197 255 255 197 255 255 197 128 57 51 128 57 51 128 57 51 128 57 51 128 57 51 255 255 198 255 255 198 255 255 198 255 255 198 129 57 51 129 57 51 129 57 51 129 57 51 129 57 51 255 255 198 255 255 213 255 255 217 255 255 220 152 69 75 154 69 76 160 75 81 165 79 84 164 78 84 255 255 226 255 255 225 255 255 224 255 255 224 151 68 74 150 68 72 147 66 69 129 57 51 129 57 51 255 255 198 255 255 198 255 255 198 255 255 198 255 255 198 129 57 51 131 59 54 144 70 61 137 62 56 255 255 203 255 255 203 255 255 205 255 255 207 255 255 215 145 71 69 145 71 70 145 71 70 136 62 64 255 255 210 255 255 209 255 255 213 255 255 210 255 255 197 128 57 51 128 57 51 128 57 51 128 57 51 255 255 197 255 255 197 255 255 197 255 255 197 255 255 197 128 57 51 128 57 51 128 57 51 128 57 51 255 255 196 255 255 196 255 255 196 255 255 196 
128 57 51 128 57 51 255 255 197 255 255 197 255 255 198 255 255 198 128 57 51 128 57 51 128 57 51 129 57 51 129 57 51 255 255 198 255 255 198 255 255 198 255 255 198 255 255 198 129 57 51 129 57 51 129 57 51 129 57 51 129 57 51 255 255 198 255 255 198 255 255 216 255 255 220 255 255 222 154 70 76 155 70 77 157 71 79 162 76 84 255 255 237 255 255 238 255 255 232 255 255 233 255 255 233 155 70 77 153 69 75 149 67 71 129 57 51 129 57 51 255 255 199 255 255 199 255 255 198 255 255 198 255 255 198 131 59 54 137 62 56 137 62 56 138 62 57 144 70 64 255 255 208 255 255 210 255 255 212 255 255 219 137 62 67 137 62 68 137 62 69 145 71 75 144 70 74 255 255 221 255 255 219 255 255 218 255 255 209 255 255 198 128 57 51 128 57 51 128 57 51 128 57 51 128 57 51 255 255 197 255 255 197 255 255 197 255 255 197 255 255 197 128 57 51 128 57 51 128 57 51 128 57 51 255 255 197 255 255 197 
128 57 51 128 57 51 128 57 51 129 57 51 129 57 51 255 255 198 255 255 198 255 255 198 255 255 198 255 255 198 129 57 51 129 57 51 129 57 51 129 57 51 129 57 51 255 255 198 255 255 198 255 255 198 255 255 198 255 255 199 129 57 51 129 57 51 129 57 51 150 68 72 154 69 76 255 255 226 255 255 227 255 255 229 255 255 233 255 255 247 196 108 118 193 105 115 173 85 95 162 74 84 160 72 82 255 255 228 255 255 226 255 255 199 255 255 199 255 255 199 129 57 51 129 57 51 129 57 51 129 57 51 132 59 54 255 255 204 255 255 204 255 255 211 255 255 213 255 255 216 137 62 65 144 70 73 145 70 74 145 71 76 137 62 71 255 255 219 255 255 220 255 255 220 255 255 226 255 255 226 144 70 77 144 70 76 136 62 68 136 62 65 129 57 51 255 255 198 255 255 198 255 255 198 255 255 198 255 255 198 128 57 51 128 57 51 128 57 51 128 57 51 128 57 51 255 255 197 255 255 197 255 255 197 255 255 197 255 255 197 
129 57 51 129 57 51 129 57 51 255 255 198 255 255 198 255 255 198 255 255 198 255 255 198 129 57 51 129 57 51 129 57 51 129 57 51 129 57 51 129 57 51 255 255 199 255 255 199 255 255 199 255 255 199 255 255 199 129 57 51 129 57 51 129 57 51 129 57 51 129 57 51 255 255 227 255 255 229 255 255 231 255 255 232 255 255 239 192 102 113 219 129 141 211 120 132 180 90 102 165 76 87 163 73 85 255 255 231 255 255 228 255 255 199 255 255 199 255 255 199 129 57 51 129 57 51 129 57 51 129 57 51 135 61 57 255 255 205 255 255 205 255 255 214 255 255 211 255 255 219 255 255 216 144 70 76 144 70 78 144 70 79 137 62 75 137 62 75 255 255 224 255 255 224 255 255 230 255 255 230 255 255 228 136 62 74 144 70 79 144 70 77 131 59 65 129 57 51 255 255 198 255 255 198 255 255 198 255 255 198 255 255 198 255 255 198 128 57 51 128 57 51 128 57 51 128 57 51 128 57 51 255 255 197 255 255 197 255 255 197 
129 57 51 255 255 198 255 255 198 255 255 198 255 255 198 255 255 198 255 255 198 129 57 51 129 57 51 129 57 51 129 57 51 129 57 51 255 255 199 255 255 199 255 255 199 255 255 199 255 255 199 255 255 199 129 57 51 129 57 51 129 57 51 129 57 51 129 57 51 255 255 199 255 255 229 255 255 232 255 255 234 255 255 235 255 255 241 194 102 116 222 130 144 214 122 136 183 91 104 168 77 90 255 255 235 255 255 233 255 255 199 255 255 199 255 255 199 255 255 199 129 57 51 129 57 51 129 57 51 129 57 51 137 62 59 137 63 58 255 255 214 255 255 218 255 255 215 255 255 217 255 255 219 137 62 73 144 70 80 145 70 83 145 70 84 137 62 79 137 62 79 255 255 228 255 255 234 255 255 232 255 255 232 255 255 226 137 62 77 137 62 76 144 70 79 131 59 67 129 57 51 129 57 51 255 255 198 255 255 198 255 255 198 255 255 198 255 255 198 129 57 51 129 57 51 129 57 51 128 57 51 128 57 51 128 57 51 255 255 198 
129 57 51 129 57 51 129 57 51 129 57 51 129 57 51 129 57 51 255 255 199 255 255 199 255 255 199 255 255 199 255 255 199 129 57 51 129 57 51 129 57 51 129 57 51 129 57 51 129 57 51 255 255 199 255 255 199 255 255 199 255 255 199 255 255 199 255 255 199 129 57 51 129 57 51 164 74 85 166 75 88 168 76 90 173 80 95 255 255 255 255 255 255 255 255 255 255 255 249 255 255 239 167 75 89 129 57 51 129 57 51 129 57 51 129 57 51 129 57 51 255 255 199 255 255 199 255 255 199 255 255 202 255 255 209 255 255 208 137 62 64 137 62 67 145 70 75 145 70 78 137 62 74 255 255 223 255 255 225 255 255 226 255 255 227 255 255 234 255 255 235 145 70 87 137 62 82 137 62 82 137 62 82 144 70 87 137 62 81 255 255 233 255 255 231 255 255 223 255 255 213 255 255 198 255 255 198 129 57 51 129 57 51 129 57 51 129 57 51 129 57 51 255 255 198 255 255 198 255 255 198 255 255 198 255 255 198 255 255 198 
129 57 51 129 57 51 129 57 51 129 57 51 255 255 199 255 255 199 255 255 199 255 255 199 255 255 199 255 255 199 129 57 51 129 57 51 129 57 51 129 57 51 129 57 51 129 57 51 255 255 199 255 255 199 255 255 199 255 255 199 255 255 199 255 255 199 129 57 51 129 57 51 129 57 51 129 57 51 167 75 89 170 76 91 255 255 241 255 255 246 255 255 250 255 255 245 255 255 241 255 255 239 129 57 51 129 57 51 129 57 51 129 57 51 129 57 51 129 57 51 255 255 199 255 255 199 255 255 199 255 255 208 255 255 212 255 255 215 137 62 66 145 70 75 137 62 72 145 70 80 137 62 76 145 70 84 255 255 233 255 255 229 255 255 230 255 255 237 255 255 237 255 255 238 137 62 84 137 62 84 137 62 84 145 70 90 144 70 89 137 62 83 255 255 235 255 255 233 255 255 221 255 255 199 255 255 199 255 255 199 129 57 51 129 57 51 129 57 51 129 57 51 129 57 51 129 57 51 255 255 198 255 255 198 255 255 198 255 255 198 
129 57 51 129 57 51 129 57 51 255 255 199 255 255 199 255 255 199 255 255 199 255 255 199 255 255 199 129 57 51 129 57 51 129 57 51 129 57 51 129 57 51 129 57 51 255 255 199 255 255 199 255 255 199 255 255 199 255 255 199 255 255 199 129 57 51 129 57 51 129 57 51 129 57 51 129 57 51 129 57 51 129 57 51 255 255 199 255 255 199 255 255 200 255 255 200 255 255 200 255 255 200 129 57 51 129 57 51 129 57 51 129 57 51 129 57 51 129 57 51 255 255 200 255 255 199 255 255 199 255 255 210 255 255 213 255 255 212 145 70 75 145 70 78 145 70 80 145 70 83 137 62 79 145 70 86 255 255 236 255 255 231 255 255 232 255 255 233 255 255 240 255 255 240 255 255 235 137 62 87 137 62 87 145 70 93 137 62 86 145 70 91 137 62 84 255 255 231 255 255 226 255 255 220 255 255 199 255 255 199 255 255 199 129 57 51 129 57 51 129 57 51 129 57 51 129 57 51 129 57 51 255 255 198 255 255 198 255 255 198 
129 57 51 255 255 199 255 255 199 255 255 199 255 255 199 255 255 199 255 255 199 255 255 199 129 57 51 129 57 51 129 57 51 129 57 51 129 57 51 129 57 51 255 255 199 255 255 199 255 255 199 255 255 199 255 255 199 255 255 199 255 255 200 129 57 51 129 57 51 129 57 51 129 57 51 129 57 51 129 57 51 255 255 200 255 255 200 255 255 200 255 255 200 255 255 200 255 255 200 255 255 200 129 57 51 129 57 51 129 57 51 129 57 51 129 57 51 129 57 51 255 255 200 255 255 200 255 255 200 255 255 202 255 255 209 255 255 214 137 62 71 145 70 80 137 62 77 137 62 79 137 62 81 145 70 88 137 62 84 255 255 233 255 255 240 255 255 241 255 255 236 255 255 236 255 255 243 145 70 95 145 70 95 137 62 89 145 70 95 137 62 88 137 62 87 137 62 86 255 255 230 255 255 226 255 255 199 255 255 199 255 255 199 255 255 199 129 57 51 129 57 51 129 57 51 129 57 51 129 57 51 129 57 51 129 57 51 255 255 198 
129 57 51 129 57 51 129 57 51 129 57 51 129 57 51 129 57 51 129 57 51 255 255 199 255 255 199 255 255 199 255 255 199 255 255 199 255 255 199 129 57 51 129 57 51 129 57 51 129 57 51 129 57 51 129 57 51 129 57 51 255 255 200 255 255 200 255 255 200 255 255 200 255 255 200 255 255 200 255 255 200 130 57 51 130 57 51 130 57 51 130 57 51 130 57 51 130 57 51 255 255 200 255 255 200 255 255 200 255 255 200 255 255 200 255 255 200 255 255 200 130 57 51 130 57 51 130 57 51 132 60 56 132 60 63 132 60 68 132 60 71 255 255 230 255 255 227 255 255 229 255 255 237 255 255 233 255 255 240 137 62 87 145 70 94 145 70 95 145 70 95 145 70 96 137 62 91 137 62 91 255 255 239 255 255 239 255 255 245 255 255 239 255 255 244 255 255 242 255 255 233 132 59 82 129 57 51 129 57 51 129 57 51 129 57 51 129 57 51 255 255 199 255 255 199 255 255 199 255 255 199 255 255 199 255 255 199 255 255 199 
129 57 51 129 57 51 129 57 51 129 57 51 129 57 51 255 255 199 255 255 199 255 255 199 255 255 199 255 255 199 255 255 200 255 255 200 129 57 51 129 57 51 129 57 51 129 57 51 129 57 51 130 57 51 130 57 51 255 255 200 255 255 200 255 255 200 255 255 200 255 255 200 255 255 200 255 255 200 130 57 51 130 57 51 130 57 51 130 57 51 130 57 51 130 57 51 130 57 51 255 255 200 255 255 200 255 255 200 255 255 200 255 255 200 255 255 200 255 255 200 130 57 51 130 57 51 130 57 51 132 60 58 132 60 65 132 60 69 132 60 73 255 255 225 255 255 229 255 255 231 255 255 239 255 255 241 255 255 242 255 255 237 145 70 96 137 62 91 137 62 91 145 70 98 137 62 92 137 62 93 145 70 99 255 255 241 255 255 247 255 255 247 255 255 240 255 255 245 255 255 236 255 255 233 132 59 80 129 57 51 129 57 51 129 57 51 129 57 51 129 57 51 129 57 51 255 255 199 255 255 199 255 255 199 255 255 199 255 255 199 
129 57 51 129 57 51 129 57 51 129 57 51 255 255 199 255 255 200 255 255 200 255 255 200 255 255 200 255 255 200 255 255 200 129 57 51 130 57 51 130 57 51 130 57 51 130 57 51 130 57 51 130 57 51 130 57 51 255 255 200 255 255 200 255 255 200 255 255 200 255 255 200 255 255 200 255 255 200 130 57 51 130 57 51 130 57 51 130 57 51 130 57 51 130 57 51 130 57 51 255 255 200 255 255 200 255 255 200 255 255 200 255 255 200 255 255 200 255 255 200 130 57 51 130 57 51 130 57 51 132 60 62 132 60 66 132 60 71 132 60 75 255 255 226 255 255 229 255 255 233 255 255 235 255 255 242 255 255 238 255 255 239 145 71 97 137 62 92 145 70 99 137 62 94 145 70 100 145 70 100 137 62 95 255 255 243 255 255 243 255 255 243 255 255 248 255 255 246 255 255 238 255 255 236 255 255 232 129 57 51 129 57 51 129 57 51 129 57 51 129 57 51 129 57 51 129 57 51 255 255 199 255 255 199 255 255 199 255 255 199 
129 57 51 129 57 51 129 57 51 255 255 200 255 255 200 255 255 200 255 255 200 255 255 200 255 255 200 255 255 200 130 57 51 130 57 51 130 57 51 130 57 51 130 57 51 130 57 51 130 57 51 130 57 51 255 255 200 255 255 200 255 255 200 255 255 200 255 255 200 255 255 200 255 255 200 130 57 51 130 57 51 130 57 51 130 57 51 130 57 51 130 57 51 130 57 51 130 57 51 255 255 200 255 255 200 255 255 200 255 255 200 255 255 200 255 255 200 255 255 200 130 57 51 130 57 51 130 57 51 132 60 66 132 60 68 132 60 72 132 60 76 255 255 228 255 255 230 255 255 232 255 255 236 255 255 244 255 255 239 255 255 251 255 255 250 148 73 102 146 71 101 137 62 95 145 70 102 137 62 96 145 70 102 145 70 102 255 255 251 255 255 251 255 255 244 255 255 241 255 255 240 255 255 238 255 255 235 255 255 199 129 57 51 129 57 51 129 57 51 129 57 51 129 57 51 129 57 51 129 57 51 255 255 199 255 255 199 255 255 199 
129 57 51 129 57 51 255 255 200 255 255 200 255 255 200 255 255 200 255 255 200 255 255 200 255 255 200 130 57 51 130 57 51 130 57 51 130 57 51 130 57 51 130 57 51 130 57 51 130 57 51 255 255 200 255 255 200 255 255 200 255 255 200 255 255 200 255 255 200 255 255 200 255 255 200 130 57 51 130 57 51 130 57 51 130 57 51 130 57 51 130 57 51 130 57 51 255 255 200 255 255 200 255 255 200 255 255 200 255 255 200 255 255 200 255 255 200 255 255 200 130 57 51 130 57 51 130 57 51 132 60 71 132 60 73 132 60 74 132 60 77 132 60 80 255 255 232 255 255 234 255 255 236 255 255 237 255 255 246 255 255 242 255 255 243 139 63 97 146 71 102 137 62 97 145 70 103 145 70 104 145 70 104 145 70 104 145 70 104 255 255 252 255 255 244 255 255 243 255 255 242 255 255 241 255 255 238 255 255 200 255 255 200 129 57 51 129 57 51 129 57 51 129 57 51 129 57 51 129 57 51 129 57 51 255 255 199 255 255 199 
130 57 51 255 255 200 255 255 200 255 255 200 255 255 200 255 255 200 255 255 200 255 255 200 130 57 51 130 57 51 130 57 51 130 57 51 130 57 51 130 57 51 130 57 51 130 57 51 255 255 200 255 255 200 255 255 200 255 255 200 255 255 200 255 255 200 255 255 200 255 255 200 130 57 51 130 57 51 130 57 51 130 57 51 130 57 51 130 57 51 130 57 51 130 57 51 255 255 200 255 255 201 255 255 201 255 255 201 255 255 201 255 255 201 255 255 201 255 255 201 130 57 51 130 57 51 130 57 51 130 57 51 133 60 77 133 60 78 133 60 78 133 60 81 255 255 233 255 255 235 255 255 237 255 255 239 255 255 240 255 255 241 255 255 245 255 255 252 146 71 104 146 71 104 146 71 105 146 71 105 146 71 105 137 62 99 137 64 101 132 60 97 255 255 246 255 255 245 255 255 244 255 255 242 255 255 240 255 255 234 255 255 200 255 255 200 129 57 51 129 57 51 129 57 51 129 57 51 129 57 51 129 57 51 129 57 51 255 255 199 
130 57 51 130 57 51 130 57 51 130 57 51 130 57 51 130 57 51 130 57 51 130 57 51 255 255 200 255 255 200 255 255 200 255 255 200 255 255 200 255 255 200 255 255 200 255 255 200 130 57 51 130 57 51 130 57 51 130 57 51 130 57 51 130 57 51 130 57 51 130 57 51 255 255 200 255 255 200 255 255 201 255 255 201 255 255 201 255 255 201 255 255 201 255 255 201 130 57 52 130 57 52 130 58 52 130 58 52 130 58 52 130 58 52 130 58 52 130 58 52 255 255 201 255 255 201 255 255 201 255 255 201 255 255 231 255 255 231 255 255 232 255 255 232 133 60 85 133 60 87 133 60 89 133 60 91 133 60 92 132 60 94 132 60 95 132 60 96 255 255 246 255 255 246 255 255 247 255 255 247 255 255 247 255 255 248 255 255 248 255 255 247 132 60 98 132 60 98 132 60 97 132 60 95 132 60 93 132 60 87 130 57 51 130 57 51 255 255 200 255 255 200 255 255 200 255 255 200 255 255 200 255 255 200 255 255 199 255 255 199 
130 57 51 130 57 51 130 57 51 130 57 51 130 57 51 130 57 51 130 57 51 255 255 200 255 255 200 255 255 200 255 255 200 255 255 200 255 255 200 255 255 200 255 255 200 130 57 51 130 57 51 130 57 51 130 57 51 130 57 51 130 57 51 130 57 51 130 57 51 255 255 201 255 255 201 255 255 201 255 255 201 255 255 201 255 255 201 255 255 201 255 255 201 255 255 201 131 58 52 131 58 52 131 58 52 131 58 52 131 58 52 131 58 52 131 58 52 131 58 52 255 255 201 255 255 201 255 255 201 255 255 201 255 255 235 255 255 236 255 255 236 255 255 236 133 60 87 133 60 88 133 60 90 133 60 92 133 60 94 133 60 95 133 60 96 133 60 97 133 60 98 255 255 248 255 255 248 255 255 248 255 255 249 255 255 249 255 255 249 255 255 249 255 255 248 132 60 99 132 60 98 132 60 97 132 60 94 132 60 89 130 57 51 130 57 51 130 57 51 255 255 200 255 255 200 255 255 200 255 255 200 255 255 200 255 255 200 255 255 200 
130 57 51 130 57 51 130 57 51 130 57 51 130 57 51 130 57 51 255 255 200 255 255 200 255 255 200 255 255 200 255 255 200 255 255 200 255 255 200 255 255 200 130 57 51 130 57 51 130 57 51 130 57 51 130 57 51 130 57 51 130 57 51 130 57 51 130 57 51 255 255 201 255 255 201 255 255 201 255 255 201 255 255 201 255 255 201 255 255 201 255 255 201 131 58 52 131 58 52 131 58 52 131 58 52 131 58 52 131 58 52 131 58 52 131 58 52 131 58 52 255 255 201 255 255 201 255 255 201 255 255 201 255 255 201 255 255 240 255 255 240 255 255 241 255 255 241 133 60 91 133 60 92 133 60 93 133 60 95 133 60 96 133 60 97 133 60 98 133 60 99 255 255 249 255 255 249 255 255 250 255 255 250 255 255 250 255 255 250 255 255 250 255 255 250 255 255 249 132 60 99 132 60 98 132 60 95 132 60 89 130 57 51 130 57 51 130 57 51 130 57 51 255 255 200 255 255 200 255 255 200 255 255 200 255 255 200 255 255 200 
130 57 51 130 57 51 130 57 51 130 57 51 130 57 51 255 255 200 255 255 200 255 255 200 255 255 200 255 255 200 255 255 200 255 255 200 255 255 200 255 255 200 130 57 51 130 57 51 130 57 51 130 57 51 130 57 51 130 57 51 130 57 51 130 58 52 255 255 201 255 255 201 255 255 201 255 255 201 255 255 201 255 255 201 255 255 201 255 255 201 255 255 202 131 58 52 131 58 52 131 58 52 131 58 52 131 58 52 131 58 52 131 58 52 131 58 52 131 58 52 255 255 202 255 255 202 255 255 202 255 255 202 255 255 202 255 255 245 255 255 245 255 255 245 255 255 245 133 60 95 133 60 95 133 60 96 133 61 96 134 61 98 134 62 99 135 62 101 135 62 102 134 62 102 255 255 251 255 255 251 255 255 251 255 255 251 255 255 251 255 255 251 255 255 251 255 255 250 132 60 100 132 60 99 132 60 96 130 57 51 130 57 51 130 57 51 130 57 51 130 57 51 130 57 51 255 255 200 255 255 200 255 255 200 255 255 200 255 255 200 
130 57 51 130 57 51 130 57 51 130 57 51 255 255 200 255 255 200 255 255 200 255 255 200 255 255 200 255 255 200 255 255 200 255 255 200 255 255 201 130 57 51 130 57 51 130 57 51 130 57 51 130 57 51 130 57 52 130 58 52 131 58 52 131 58 52 255 255 201 255 255 201 255 255 201 255 255 202 255 255 202 255 255 202 255 255 202 255 255 202 255 255 202 132 59 53 132 59 53 132 59 53 132 59 53 132 59 53 132 59 53 132 59 53 132 59 53 132 59 53 255 255 202 255 255 202 255 255 202 255 255 202 255 255 202 255 255 202 255 255 249 255 255 249 255 255 249 134 61 100 134 61 100 134 61 100 134 61 100 136 63 102 137 65 103 139 66 105 139 66 107 138 65 107 255 255 255 255 255 254 255 255 253 255 255 252 255 255 252 255 255 252 255 255 252 255 255 251 255 255 250 132 60 100 132 60 97 130 57 51 130 57 51 130 57 51 130 57 51 130 57 51 130 57 51 130 57 51 255 255 200 255 255 200 255 255 200 255 255 200 
